<mxfile host="drawio-plugin" modified="2021-10-13T08:19:39.696Z" agent="5.0 (Macintosh; Intel Mac OS X 11_6_0) AppleWebKit/537.36 (KHTML, like Gecko) Chrome/89.0.4389.114 Safari/537.36" etag="T0VxIk1gs-TF9gsaU2bV" version="14.7.4" type="embed"><diagram id="23iRSUPoRavnBvh4doch" name="Page-1"><mxGraphModel dx="1015" dy="730" grid="1" gridSize="10" guides="1" tooltips="1" connect="1" arrows="1" fold="1" page="1" pageScale="1" pageWidth="827" pageHeight="1169" math="0" shadow="0"><root><mxCell id="0"/><mxCell id="1" parent="0"/><mxCell id="6" style="edgeStyle=orthogonalEdgeStyle;rounded=0;orthogonalLoop=1;jettySize=auto;html=1;entryX=0;entryY=0.5;entryDx=0;entryDy=0;" parent="1" source="2" target="4" edge="1"><mxGeometry relative="1" as="geometry"/></mxCell><mxCell id="12" style="edgeStyle=orthogonalEdgeStyle;rounded=0;orthogonalLoop=1;jettySize=auto;html=1;entryX=0;entryY=0.5;entryDx=0;entryDy=0;" parent="1" source="2" target="7" edge="1"><mxGeometry relative="1" as="geometry"/></mxCell><mxCell id="2" value="视频截图" style="rounded=1;whiteSpace=wrap;html=1;" parent="1" vertex="1"><mxGeometry x="60" y="230" width="120" height="60" as="geometry"/></mxCell><mxCell id="3" value="&lt;pre style=&quot;background-color: #2b2b2b ; color: #a9b7c6 ; font-family: &amp;quot;jetbrains mono&amp;quot; , monospace ; font-size: 9.8pt&quot;&gt;&lt;span style=&quot;color: #cc7832&quot;&gt;struct &lt;/span&gt;&lt;span style=&quot;color: #b5b6e3&quot;&gt;CutFrameInfo &lt;/span&gt;{&lt;br&gt;    &lt;span style=&quot;color: #b5b6e3&quot;&gt;std&lt;/span&gt;::&lt;span style=&quot;color: #b9bcd1&quot;&gt;string &lt;/span&gt;&lt;span style=&quot;color: #9373a5&quot;&gt;content&lt;/span&gt;&lt;span style=&quot;color: #cc7832&quot;&gt;;&lt;br&gt;&lt;/span&gt;&lt;span style=&quot;color: #cc7832&quot;&gt;    &lt;/span&gt;&lt;span style=&quot;color: #b9bcd1&quot;&gt;int32_t &lt;/span&gt;&lt;span style=&quot;color: #9373a5&quot;&gt;timeAt&lt;/span&gt;&lt;span style=&quot;color: #cc7832&quot;&gt;;&lt;br&gt;&lt;/span&gt;}&lt;span style=&quot;color: #cc7832&quot;&gt;;&lt;br&gt;&lt;/span&gt;&lt;span style=&quot;color: #cc7832&quot;&gt;&lt;br&gt;&lt;/span&gt;&lt;span style=&quot;color: #808080&quot;&gt;/** 参数说明：&lt;br&gt;&lt;/span&gt;&lt;span style=&quot;color: #808080&quot;&gt; @param dataId:标识当前的请求&lt;br&gt;&lt;/span&gt;&lt;span style=&quot;color: #808080&quot;&gt; @param input:输入视频文件的路径&lt;br&gt;&lt;/span&gt;&lt;span style=&quot;color: #808080&quot;&gt; @param output:输出结果&lt;br&gt;&lt;/span&gt;&lt;span style=&quot;color: #808080&quot;&gt; @param frameInterval:每隔frameInterval帧截取一帧&lt;br&gt;&lt;/span&gt;&lt;span style=&quot;color: #808080&quot;&gt; @param timeInterval:每隔timeInterval秒截取一帧&lt;br&gt;&lt;/span&gt;&lt;span style=&quot;color: #808080&quot;&gt; @param maxFrames:最大截取的帧数&lt;br&gt;&lt;/span&gt;&lt;span style=&quot;color: #808080&quot;&gt; @param duration:返回视频的时长&lt;br&gt;&lt;/span&gt;&lt;span style=&quot;color: #808080&quot;&gt; */&lt;br&gt;&lt;/span&gt;&lt;span style=&quot;color: #cc7832&quot;&gt;extern bool&lt;br&gt;&lt;/span&gt;&lt;span style=&quot;color: #ffc66d&quot;&gt;cutFrames&lt;/span&gt;(&lt;span style=&quot;color: #cc7832&quot;&gt;const &lt;/span&gt;&lt;span style=&quot;color: #b5b6e3&quot;&gt;std&lt;/span&gt;::&lt;span style=&quot;color: #b9bcd1&quot;&gt;string &lt;/span&gt;&amp;amp;dataId&lt;span style=&quot;color: #cc7832&quot;&gt;, const &lt;/span&gt;&lt;span style=&quot;color: #b5b6e3&quot;&gt;std&lt;/span&gt;::&lt;span style=&quot;color: #b9bcd1&quot;&gt;string &lt;/span&gt;&amp;amp;input&lt;span style=&quot;color: #cc7832&quot;&gt;, &lt;/span&gt;&lt;span style=&quot;color: #b5b6e3&quot;&gt;std&lt;/span&gt;::&lt;span style=&quot;color: #b5b6e3&quot;&gt;vector&lt;/span&gt;&amp;lt;&lt;span style=&quot;color: #b5b6e3&quot;&gt;CutFrameInfo&lt;/span&gt;&amp;gt; &amp;amp;output&lt;span style=&quot;color: #cc7832&quot;&gt;, int &lt;/span&gt;frameInterval&lt;span style=&quot;color: #cc7832&quot;&gt;,&lt;br&gt;&lt;/span&gt;&lt;span style=&quot;color: #cc7832&quot;&gt;          int &lt;/span&gt;timeInterval&lt;span style=&quot;color: #cc7832&quot;&gt;, int &lt;/span&gt;maxFrames&lt;span style=&quot;color: #cc7832&quot;&gt;, double &lt;/span&gt;&amp;amp;duration)&lt;span style=&quot;color: #cc7832&quot;&gt;;&lt;/span&gt;&lt;/pre&gt;" style="text;whiteSpace=wrap;html=1;" parent="1" vertex="1"><mxGeometry x="480" y="30" width="550" height="280" as="geometry"/></mxCell><mxCell id="5" style="edgeStyle=orthogonalEdgeStyle;rounded=0;orthogonalLoop=1;jettySize=auto;html=1;" parent="1" source="4" target="3" edge="1"><mxGeometry relative="1" as="geometry"/></mxCell><mxCell id="4" value="接口" style="rounded=1;whiteSpace=wrap;html=1;" parent="1" vertex="1"><mxGeometry x="270" y="140" width="120" height="60" as="geometry"/></mxCell><mxCell id="9" value="" style="edgeStyle=orthogonalEdgeStyle;rounded=0;orthogonalLoop=1;jettySize=auto;html=1;" parent="1" source="7" target="8" edge="1"><mxGeometry relative="1" as="geometry"/></mxCell><mxCell id="7" value="处理流程" style="rounded=1;whiteSpace=wrap;html=1;" parent="1" vertex="1"><mxGeometry x="270" y="340" width="120" height="60" as="geometry"/></mxCell><mxCell id="13" style="edgeStyle=orthogonalEdgeStyle;rounded=0;orthogonalLoop=1;jettySize=auto;html=1;entryX=0.5;entryY=0;entryDx=0;entryDy=0;" parent="1" source="8" target="10" edge="1"><mxGeometry relative="1" as="geometry"/></mxCell><mxCell id="8" value="&lt;pre&gt;initFFmpeg&lt;/pre&gt;&lt;pre&gt;初始化ffmpeg相关&lt;/pre&gt;" style="whiteSpace=wrap;html=1;rounded=1;" parent="1" vertex="1"><mxGeometry x="470" y="340" width="120" height="60" as="geometry"/></mxCell><mxCell id="14" style="edgeStyle=orthogonalEdgeStyle;rounded=0;orthogonalLoop=1;jettySize=auto;html=1;entryX=0.5;entryY=0;entryDx=0;entryDy=0;" parent="1" source="10" target="11" edge="1"><mxGeometry relative="1" as="geometry"/></mxCell><mxCell id="10" value="&lt;pre&gt;CVideoDecoder&lt;/pre&gt;&lt;pre&gt;解码&lt;/pre&gt;" style="rounded=1;whiteSpace=wrap;html=1;" parent="1" vertex="1"><mxGeometry x="470" y="450" width="120" height="60" as="geometry"/></mxCell><mxCell id="11" value="&lt;pre&gt;CImageEncoder&lt;/pre&gt;&lt;pre&gt;编码&lt;/pre&gt;" style="rounded=1;whiteSpace=wrap;html=1;" parent="1" vertex="1"><mxGeometry x="470" y="550" width="120" height="60" as="geometry"/></mxCell><mxCell id="15" value="音频处理" style="rounded=1;whiteSpace=wrap;html=1;" vertex="1" parent="1"><mxGeometry x="60" y="870" width="120" height="60" as="geometry"/></mxCell><mxCell id="18" style="edgeStyle=orthogonalEdgeStyle;rounded=0;orthogonalLoop=1;jettySize=auto;html=1;entryX=0;entryY=0.5;entryDx=0;entryDy=0;" edge="1" parent="1" source="16" target="17"><mxGeometry relative="1" as="geometry"/></mxCell><mxCell id="16" value="&lt;pre&gt;AudioProcessor&lt;/pre&gt;&lt;pre&gt;功能处理类&lt;/pre&gt;" style="rounded=1;whiteSpace=wrap;html=1;" vertex="1" parent="1"><mxGeometry x="500" y="985" width="120" height="60" as="geometry"/></mxCell><mxCell id="17" value="&lt;pre style=&quot;background-color: #2b2b2b ; color: #a9b7c6 ; font-family: &amp;quot;jetbrains mono&amp;quot; , monospace ; font-size: 9.8pt&quot;&gt;&lt;span style=&quot;color: #cc7832&quot;&gt;struct &lt;/span&gt;&lt;span style=&quot;color: #b5b6e3&quot;&gt;AudioProcessor&lt;/span&gt;::&lt;span style=&quot;color: #b5b6e3&quot;&gt;AudioProcessorImpl &lt;/span&gt;{&lt;br&gt;    &lt;span style=&quot;color: #b9bcd1&quot;&gt;AVFormatContext &lt;/span&gt;*&lt;span style=&quot;color: #9373a5&quot;&gt;fmtCtx&lt;/span&gt;&lt;span style=&quot;color: #cc7832&quot;&gt;;&lt;br&gt;&lt;/span&gt;&lt;span style=&quot;color: #cc7832&quot;&gt;    &lt;/span&gt;&lt;span style=&quot;color: #b5b6e3&quot;&gt;AVIOReadMemory &lt;/span&gt;*&lt;span style=&quot;color: #9373a5&quot;&gt;readMemory&lt;/span&gt;&lt;span style=&quot;color: #cc7832&quot;&gt;;&lt;br&gt;&lt;/span&gt;&lt;span style=&quot;color: #cc7832&quot;&gt;    double &lt;/span&gt;&lt;span style=&quot;color: #9373a5&quot;&gt;duration&lt;/span&gt;&lt;span style=&quot;color: #cc7832&quot;&gt;;    &lt;/span&gt;&lt;span style=&quot;color: #808080&quot;&gt;// 解码获取的准确时长&lt;br&gt;&lt;/span&gt;}&lt;span style=&quot;color: #cc7832&quot;&gt;;&lt;/span&gt;&lt;/pre&gt;" style="text;whiteSpace=wrap;html=1;" vertex="1" parent="1"><mxGeometry x="670" y="960" width="360" height="110" as="geometry"/></mxCell><mxCell id="19" value="架构图" style="rounded=1;whiteSpace=wrap;html=1;" vertex="1" parent="1"><mxGeometry x="250" y="930" width="120" height="60" as="geometry"/></mxCell></root></mxGraphModel></diagram></mxfile>